<svg id="Layer_1" data-name="Layer 1" xmlns="http://www.w3.org/2000/svg" xmlns:xlink="http://www.w3.org/1999/xlink" viewBox="0 0 960 960"><defs><style>.cls-1,.cls-17,.cls-18,.cls-4{fill:none;}.cls-2{clip-path:url(#clip-path);}.cls-3{fill:#034ea2;}.cls-10,.cls-3,.cls-8,.cls-9{fill-rule:evenodd;}.cls-17,.cls-4{stroke:#fff;}.cls-17,.cls-18,.cls-4{stroke-linejoin:round;}.cls-4{stroke-width:1.4px;}.cls-11,.cls-15,.cls-16,.cls-5,.cls-6{isolation:isolate;}.cls-11,.cls-13,.cls-6{font-size:19px;}.cls-11,.cls-13,.cls-15,.cls-16,.cls-6{fill:#fff;}.cls-6{font-family:Arial-ItalicMT, Arial;font-style:italic;}.cls-7{letter-spacing:-0.09em;}.cls-8{fill:#2484c6;}.cls-9{fill:#00aab6;}.cls-10{fill:#ea1948;}.cls-11,.cls-13{font-family:ArialMT, Arial;}.cls-12{letter-spacing:-0.11em;}.cls-14{letter-spacing:-0.07em;}.cls-15{font-size:40px;}.cls-15,.cls-16{font-family:Arial-BoldMT, Arial;font-weight:700;}.cls-16{font-size:37px;}.cls-17{stroke-width:1.33px;}.cls-18{stroke:#000;stroke-width:3px;}</style><clipPath id="clip-path"><rect class="cls-1" width="960" height="960"/></clipPath></defs><g class="cls-2"><path class="cls-3" d="M552,39H409l-4.4.7-8.19,4.72L322.13,171.59,320,180.47l.53,4.73,73.08,127.87,6.64,6.28L409,322H552l8.76-2.6,6.64-6.28,71.48-123.72,2.12-8.88-.53-4.72L567.38,47.88l-6.64-6.28Z"/><path class="cls-4" d="M563.67,56.35l-2.82-3.45L557,50.09l-4.37-1.9-4.41-.69H412.76L404,50.09l-6.67,6.26L329.64,172.13,327.5,181l.54,4.71L397.31,305.6l6.67,6.26,8.78,2.59H548.22l8.78-2.59,6.67-6.26,67.67-115.78,2.14-8.85-.53-4.7-1.61-4.14Z"/><g class="cls-5"><text class="cls-6" transform="translate(399.54 147)">“<tspan class="cls-7" x="6.33" y="0">T</tspan><tspan x="16.19" y="0">o </tspan></text><text class="cls-6" transform="translate(428.43 147)">be </text><text class="cls-6" transform="translate(455.06 147)">a </text><text class="cls-6" transform="translate(471.36 147)">world </text><text class="cls-6" transform="translate(527.2 147)">class </text><text class="cls-6" transform="translate(408.52 171)">university </text><text class="cls-6" transform="translate(495.98 171)">through</text><text class="cls-6" transform="translate(393.48 195)">education</text><text class="cls-6" transform="translate(474.15 195)">, </text><text class="cls-6" transform="translate(484.48 195)">innovation, </text><text class="cls-6" transform="translate(413.57 219)">and </text><text class="cls-6" transform="translate(455.97 219)">research</text><text class="cls-6" transform="translate(532.34 219)">for</text><text class="cls-6" transform="translate(429.72 243)">the</text><text class="cls-6" transform="translate(460.12 243)">service</text><text class="cls-6" transform="translate(522.35 243)">of </text><text class="cls-6" transform="translate(442.85 267)">humanity”</text></g><path class="cls-8" d="M299.4,510H163.57l-4.18.66-7.79,4.5L81,636l-2,8.44.5,4.49,69.44,121.53,6.3,6,8.33,2.47H299.4l8.32-2.47,6.31-6L381.94,652.9l2-8.44-.5-4.49L314,518.44l-6.31-6Z"/><path class="cls-9" d="M383.47,360.21l-2-8.42L313.65,234.43l-6.29-6L299,226H163.43l-8.31,2.47-6.3,6L81,351.79l-2,8.42.5,4.49L148.82,486l6.3,6,8.31,2.47H299l8.32-2.47,6.29-6,67.81-117.36Z"/><path class="cls-9" d="M631,786.77l-2-8.43L561.17,661l-6.3-6-8.31-2.47H411L402.64,655l-6.3,6-67.8,117.36-2,8.43.5,4.48,69.32,121.31,6.3,6L411,921H546.56l8.31-2.46,6.3-6L629,795.2Z"/><path class="cls-10" d="M546.67,369H411.29l-4.17.66-7.76,4.5L329,495l-2,8.44.5,4.49,69.21,121.53,6.28,6,8.3,2.47H546.67l8.3-2.47,6.29-6L629,511.9l2-8.44-.5-4.49-69.2-121.53-6.29-6Z"/><path class="cls-9" d="M796.4,227H660.57l-4.18.66-7.79,4.48L578,352.55,576,361l.51,4.48,69.43,121.07,6.3,5.95,8.33,2.46H796.4l8.32-2.46,6.31-5.95,67.91-117.14,2-8.41-.5-4.48L811,235.41l-6.31-5.95Z"/><path class="cls-8" d="M796.4,510H660.57l-4.18.66-7.79,4.5L578,636l-2,8.44.51,4.49,69.43,121.53,6.3,6,8.33,2.47H796.4l8.32-2.47,6.31-6L878.94,652.9l2-8.44-.5-4.49L811,518.44l-6.31-6Z"/><g class="cls-5"><text class="cls-11" transform="translate(141.74 317)"><tspan class="cls-12">T</tspan><tspan x="9.5" y="0">o</tspan></text><text class="cls-11" transform="translate(166.57 317)">establish</text><text class="cls-11" transform="translate(243.71 317)">c</text><text class="cls-11" transform="translate(252.91 317)">entres</text><text class="cls-11" transform="translate(308.81 317)">of </text><text class="cls-11" transform="translate(179.75 340)">excellence in </text><text class="cls-11" transform="translate(159.61 362)">emerging</text><text class="cls-11" transform="translate(241.61 362)">areas</text><text class="cls-11" transform="translate(290.94 362)">of</text><text class="cls-11" transform="translate(146.51 384)">scienc</text><text class="cls-11" transform="translate(198.54 384)">e</text><text class="cls-13" transform="translate(209.11 384)">,</text><text class="cls-11" transform="translate(217.47 384)">engineering, </text><text class="cls-11" transform="translate(187 407)">technolog<tspan class="cls-14" x="82.4" y="0">y</tspan><tspan x="90.49" y="0">, </tspan></text><text class="cls-11" transform="translate(161.75 429)">management and </text><text class="cls-11" transform="translate(184.39 452)">allied</text><text class="cls-11" transform="translate(232.65 452)">areas.</text><text class="cls-11" transform="translate(686.18 328)"><tspan class="cls-12">T</tspan><tspan x="9.5" y="0">o</tspan></text><text class="cls-11" transform="translate(711.02 328)">provide</text><text class="cls-11" transform="translate(678.54 351)">environment</text><text class="cls-11" transform="translate(650.53 373)">friendl<tspan class="cls-14" x="51.75" y="0">y</tspan><tspan x="59.84" y="0">, </tspan></text><text class="cls-13" transform="translate(720.93 373)">reasonable </text><text class="cls-11" transform="translate(662.61 395)">and </text><text class="cls-11" transform="translate(703.35 395)">sustainable</text><text class="cls-11" transform="translate(655.23 418)">solutions </text><text class="cls-13" transform="translate(735.5 418)">for </text><text class="cls-11" transform="translate(765.43 418)">local </text><text class="cls-11" transform="translate(653.9 440)">and </text><text class="cls-11" transform="translate(689.54 440)">global </text><text class="cls-11" transform="translate(750.14 440)">needs.</text><text class="cls-15" transform="translate(220.48 271)">1</text><text class="cls-15" transform="translate(219.3 557)">2</text><text class="cls-15" transform="translate(467.65 697)">3</text><text class="cls-15" transform="translate(714.17 555)">4</text><text class="cls-15" transform="translate(718.28 275)">5</text><text class="cls-16" transform="translate(407.11 518)">MISSION</text></g><path class="cls-17" d="M310.53,241.91l-2.67-3.27L304.23,236l-4.13-1.8-4.16-.66H168L159.72,236l-6.29,5.95L89.52,352.08l-2,8.42L88,365l65.42,114.1,6.29,6L168,487.5H295.94l8.29-2.46,6.3-6,63.9-110.16,2-8.42L376,356l-1.52-3.94Z"/><path class="cls-17" d="M310.53,525.91l-2.67-3.27L304.23,520l-4.13-1.8-4.16-.66H168L159.72,520l-6.29,5.95L89.52,636.09l-2,8.41L88,649l65.42,114.11,6.29,5.94L168,771.5H295.94l8.29-2.47,6.3-5.94,63.9-110.18,2-8.41L376,640l-1.52-3.93Z"/><path class="cls-17" d="M807.53,242.91l-2.67-3.27L801.23,237l-4.13-1.8-4.16-.66H665l-8.3,2.46-6.29,5.95L586.52,353.08l-2,8.42L585,366l65.42,114.1,6.29,6,8.3,2.46H792.94l8.29-2.46,6.3-6,63.9-110.16,2-8.42L873,357l-1.52-3.94Z"/><path class="cls-17" d="M807.53,525.91l-2.67-3.27L801.23,520l-4.13-1.8-4.16-.66H665l-8.3,2.46-6.29,5.95L586.52,636.09l-2,8.41L585,649l65.42,114.11,6.29,5.94,8.3,2.47H792.94l8.29-2.47,6.3-5.94,63.9-110.18,2-8.41L873,640l-1.52-3.93Z"/><path class="cls-17" d="M558.3,668.91l-2.67-3.27L552,663l-4.14-1.8-4.18-.66H415.29L407,663l-6.32,5.95L336.53,779.09l-2,8.41L335,792l65.64,114.11L407,912l8.32,2.47H543.66L552,912l6.32-5.94,64.12-110.18,2-8.41L624,783l-1.53-3.93Z"/><path class="cls-17" d="M558.3,385.92l-2.67-3.28L552,380l-4.14-1.8-4.18-.66H415.29L407,380l-6.32,6L336.53,496.08l-2,8.42L335,509l65.64,114.11L407,629l8.32,2.47H543.66L552,629l6.32-5.94,64.12-110.18,2-8.41L624,500l-1.53-3.94Z"/><path class="cls-18" d="M365.5,431.45l-19-11.95"/><path class="cls-18" d="M348.71,428.49l-2.21-9.34,9-1.65"/><path class="cls-18" d="M616.42,423.5l-19.92,14"/><path class="cls-18" d="M607.5,422.5l9,1.15-1.81,8.79"/><path class="cls-18" d="M477.5,639.5v18.93"/><path class="cls-18" d="M484.49,651.5,478,658.42l-6.5-6.92"/><path class="cls-18" d="M598.5,567.5l19,11"/><path class="cls-18" d="M614.82,569.5l2.66,8.93-9,2"/><path class="cls-18" d="M363.42,570.5,344.5,581.43"/><path class="cls-18" d="M354.49,583.42l-10-2,2.88-9"/><g class="cls-5"><text class="cls-16" transform="translate(420.43 103)">VISION</text><text class="cls-11" transform="translate(655.41 618)"><tspan class="cls-12">T</tspan><tspan x="9.5" y="0">o</tspan></text><text class="cls-11" transform="translate(680.25 618)">develop </text><text class="cls-11" transform="translate(756.35 618)">human</text><text class="cls-11" transform="translate(676.21 641)">potential with </text><text class="cls-11" transform="translate(657.4 663)">analytical </text><text class="cls-11" transform="translate(743.87 663)">abilities, </text><text class="cls-11" transform="translate(654.73 685)">ethics </text><text class="cls-11" transform="translate(713.27 685)">and</text><text class="cls-11" transform="translate(748.57 685)">integrity</text><text class="cls-11" transform="translate(182.65 603)"><tspan class="cls-12">T</tspan><tspan x="9.5" y="0">o</tspan></text><text class="cls-11" transform="translate(207.49 603)">foster</text><text class="cls-11" transform="translate(258.82 603)">an </text><text class="cls-11" transform="translate(173.52 622)">ecosystem </text><text class="cls-11" transform="translate(266.35 622)">for </text><text class="cls-11" transform="translate(152.59 641)">incubation,</text><text class="cls-11" transform="translate(246.69 641)">product </text><text class="cls-11" transform="translate(175.04 659)">development, </text><text class="cls-11" transform="translate(189.51 678)">transfer </text><text class="cls-11" transform="translate(256.47 678)">of </text><text class="cls-11" transform="translate(167.62 697)">technology </text><text class="cls-11" transform="translate(263.52 697)">and </text><text class="cls-11" transform="translate(158.61 715)">entrepreneurship.</text><text class="cls-11" transform="translate(438.46 760)"><tspan class="cls-12">T</tspan><tspan x="9.5" y="0">o</tspan></text><text class="cls-11" transform="translate(463.29 760)">create </text><text class="cls-11" transform="translate(415.27 783)">environment </text><text class="cls-11" transform="translate(521.97 783)">of </text><text class="cls-11" transform="translate(421.64 805)">collaboration, </text><text class="cls-11" transform="translate(408.29 827)">experimentation, </text><text class="cls-11" transform="translate(411.44 850)">imagination </text><text class="cls-11" transform="translate(510.97 850)">and </text><text class="cls-11" transform="translate(438.96 872)">creativit<tspan class="cls-14" x="65.46" y="0">y</tspan><tspan x="73.55" y="0">.</tspan></text></g></g></svg>