<svg width="1920" height="1080" xmlns="http://www.w3.org/2000/svg"><defs><linearGradient id="a" gradientTransform="rotate(90)"><stop offset="5%" stop-color="#e8f7eb"/><stop offset="95%" stop-color="#edf9f0"/></linearGradient><linearGradient id="b" gradientTransform="rotate(90)"><stop offset="5%" stop-color="#cff1e5"/><stop offset="95%" stop-color="#dbf4eb"/></linearGradient><linearGradient id="c" gradientTransform="rotate(90)"><stop offset="5%" stop-color="#b6ece7"/><stop offset="95%" stop-color="#c8f0ed"/></linearGradient><linearGradient id="d" gradientTransform="rotate(90)"><stop offset="5%" stop-color="#85cdc6"/><stop offset="95%" stop-color="#a3d9d4"/></linearGradient><linearGradient id="e" gradientTransform="rotate(90)"><stop offset="5%" stop-color="#63a9a2"/><stop offset="95%" stop-color="#8abeb9"/></linearGradient><linearGradient id="f" gradientTransform="rotate(90)"><stop offset="5%" stop-color="#51807b"/><stop offset="95%" stop-color="#7c9f9c"/></linearGradient></defs><path fill="#fffef8" d="M0 0h1920v1080H0z"/><path d="M0 154c70.262 17.896 140.524 35.793 203 34 62.476-1.793 117.166-23.274 170-21 52.834 2.274 103.813 28.304 177 16 73.187-12.304 168.584-62.942 243-64 74.416-1.058 127.852 47.464 190 55 62.148 7.536 133.01-25.914 191-27 57.99-1.086 103.11 30.194 157 34 53.89 3.806 116.547-19.86 187-22 70.453-2.14 148.7 17.246 217 20 68.3 2.754 126.65-11.123 225-25l-40 926H0Z" fill="url(#a)"/><path d="M0 308c54.966 6.74 109.932 13.481 179 7s152.237-26.184 219-31c66.763-4.816 117.12 5.254 181 8 63.88 2.746 141.286-1.833 212-10s134.737-19.923 188-7c53.263 12.923 95.767 50.526 155 64 59.233 13.474 135.197 2.818 208-9s142.447-24.797 199-38 100.015-26.63 161-24c60.985 2.63 139.492 21.315 258 40l-40 772H0Z" fill="url(#b)"/><path d="M0 462c49.522-6.949 99.045-13.898 169-18s160.343-5.359 235-5c74.657.359 133.584 2.332 187 18s101.32 45.03 165 45c63.68-.03 143.134-29.45 208-35 64.866-5.55 115.144 12.77 181 13 65.856.23 147.291-17.629 221-13 73.709 4.629 139.69 31.746 195 22 55.31-9.746 99.945-56.356 158-67 58.055-10.644 129.527 14.678 241 40l-40 618H0Z" fill="url(#c)"/><path d="M0 617c74.81-3.072 149.621-6.143 215-8 65.379-1.857 121.326-2.498 179 2 57.674 4.498 117.075 14.135 184 19s141.375 4.958 210 7 131.426 6.033 192 5c60.574-1.033 118.922-7.092 181-8 62.078-.908 127.887 3.334 199-1s147.53-17.244 201-23 83.991-4.359 140-2 137.504 5.68 259 9l-40 463H0Z" fill="url(#d)"/><path d="M0 771c68.811-3.54 137.622-7.08 196-7 58.378.08 106.323 3.779 165 7 58.677 3.221 128.085 5.964 205-4 76.915-9.964 161.336-32.633 217-33 55.664-.367 82.57 21.57 150 39s175.386 30.356 239 15c63.614-15.356 82.886-58.992 145-55 62.114 3.992 167.07 55.613 244 64s125.837-26.46 181-38 116.581.23 218 12l-40 309H0Z" fill="url(#e)"/><path d="M0 925c74.834 25.509 149.668 51.017 208 35 58.332-16.017 100.164-73.56 158-75 57.836-1.44 131.678 53.222 204 64 72.322 10.778 143.126-22.33 207-31 63.874-8.67 120.818 7.096 189 10s147.601-7.053 204-16 89.777-16.883 154-11c64.223 5.883 159.29 25.584 224 24 64.71-1.584 99.06-24.453 156-28 56.94-3.547 136.47 12.226 256 28l-40 155H0Z" fill="url(#f)"/><path d="M0 1079c61.43 2.644 122.86 5.289 191 8 68.14 2.711 142.99 5.49 210 12 67.01 6.51 126.18 16.751 187 18 60.82 1.249 123.289-6.494 181-9 57.711-2.506 110.665.225 169-5 58.335-5.225 122.051-18.406 192-32 69.949-13.594 146.13-27.603 217-26 70.87 1.603 136.426 18.816 194 34 57.574 15.184 107.164 28.338 169 28 61.836-.338 135.918-14.17 250-28l-40 1H0Z" fill="url(#gradient_7)"/></svg>