<svg id="visual" viewBox="0 0 960 540" width="960" height="540" xmlns="http://www.w3.org/2000/svg" xmlns:xlink="http://www.w3.org/1999/xlink" version="1.1"><rect x="0" y="0" width="960" height="540" fill="#074d70"></rect><path d="M0 164L26.7 182.8C53.3 201.7 106.7 239.3 160 241.3C213.3 243.3 266.7 209.7 320 199C373.3 188.3 426.7 200.7 480 220C533.3 239.3 586.7 265.7 640 254.8C693.3 244 746.7 196 800 212C853.3 228 906.7 308 933.3 348L960 388L960 541L933.3 541C906.7 541 853.3 541 800 541C746.7 541 693.3 541 640 541C586.7 541 533.3 541 480 541C426.7 541 373.3 541 320 541C266.7 541 213.3 541 160 541C106.7 541 53.3 541 26.7 541L0 541Z" fill="#CBE8FB" stroke-linecap="round" stroke-linejoin="miter"></path></svg>